<?xml version="1.0" encoding="UTF-8"?>
<svg id="Layer_1" data-name="Layer 1" xmlns="http://www.w3.org/2000/svg" viewBox="0 0 385.83 318.74">
  <defs>
    <style>
      .cls-1 {
        fill: #004163;
      }

      .cls-2 {
        fill: #e6f1f3;
      }

      .cls-3 {
        fill: #ff2c3d;
      }

      .cls-4 {
        fill: #fff;
        fill-rule: evenodd;
      }
    </style>
  </defs>
  <path class="cls-4" d="m32.83,271.04C10.67,244.56-2.27,207.79,3.05,173.67c5.13-32.88,39.6-51.47,57.37-79.6,14.4-22.8,14.48-55.82,37.26-70.24,22.76-14.42,52.61-.51,79.37-3.62,26.55-3.09,52.42-24.01,77.45-14.62,24.98,9.37,29.92,42.81,48.58,61.88,22.21,22.7,58.65,31.55,71.35,60.66,13.35,30.61,10.36,67.41-1.94,98.46-12.4,31.33-34.81,62.06-66.33,73.97-30.79,11.63-63.46-15.38-96.25-12.54-31.04,2.68-56.37,31.38-87.38,28.41-33.93-3.25-67.81-19.22-89.68-45.36Z"/>
  <g>
    <g>
      <path class="cls-2" d="m92.85,184.13c6.07-.91,12.24-.83,18.38-.74,15.53.22,31.44.04,46.97.26.42,0,.5.42.85.65.42.27.95.35,1.11.82,1.6,4.72,2.85,9.88,4.45,14.6.64,1.9,2.27,3.96,2.4,5.96.13,2-1.29,3.99-2.61,5.49-2.03,2.32-2.9,2.79-3.26,6.25-.34,3.22-.84,6.58-.49,9.79.28,2.62.55,5.38.18,8.04-.24,1.72-1.73,2.59-3.29,2.98-8.46,2.1-17.62-1.21-24.47-6.17-7.13-5.16-12.1-12.76-19.42-17.75-2.12-1.45-4.41-2.66-6.84-3.49-6.46-2.22-13.32-2.83-20.06-3.67.43.05-.35-3.35,0-3.92.79-1.28,2.02-5.64,2.64-7.01,1.74-3.83,3.34-7.84,3.47-12.1Z"/>
      <path class="cls-1" d="m163.58,249.55h-73.17v-35.03c0-1.52,1.23-2.75,2.75-2.75s2.75,1.23,2.75,2.75v29.52h62.16v-30.04c0-1.52,1.23-2.75,2.75-2.75s2.75,1.23,2.75,2.75v35.55Z"/>
      <path class="cls-1" d="m168.47,249.55h-82.96c-1.52,0-2.75-1.23-2.75-2.75s1.23-2.75,2.75-2.75h82.96c1.52,0,2.75,1.23,2.75,2.75s-1.23,2.75-2.75,2.75Z"/>
      <path class="cls-1" d="m157.4,217.25c-4.09,0-7.74-1.73-10.09-4.42-2.35,2.69-6,4.42-10.09,4.42s-7.74-1.73-10.09-4.42c-2.35,2.69-6,4.42-10.09,4.42s-7.74-1.73-10.09-4.42c-2.35,2.69-6,4.42-10.09,4.42-6.33,0-11.66-4.07-12.68-9.69-.21-1.19-.12-2.45.26-3.64l6.96-21.59c.37-1.14,1.43-1.91,2.62-1.91h66.24c1.2,0,2.25.77,2.62,1.91l6.96,21.59c.39,1.2.48,2.46.26,3.64-1.02,5.61-6.35,9.69-12.68,9.69Zm-10.09-14.32c1.52,0,2.75,1.23,2.75,2.75,0,3.34,3.29,6.06,7.34,6.06,3.61,0,6.73-2.22,7.26-5.16.05-.3.02-.63-.08-.97l-6.35-19.68h-62.23l-6.35,19.68c-.11.34-.14.67-.08.97.53,2.94,3.65,5.16,7.26,5.16,4.05,0,7.34-2.72,7.34-6.06,0-1.52,1.23-2.75,2.75-2.75s2.75,1.23,2.75,2.75c0,3.34,3.29,6.06,7.34,6.06s7.34-2.72,7.34-6.06c0-1.52,1.23-2.75,2.75-2.75s2.75,1.23,2.75,2.75c0,3.34,3.29,6.06,7.34,6.06s7.34-2.72,7.34-6.06c0-1.52,1.23-2.75,2.75-2.75Z"/>
      <path class="cls-1" d="m117.08,249.55c-1.52,0-2.75-1.23-2.75-2.75v-32.3c0-1.52,1.23-2.75,2.75-2.75s2.75,1.23,2.75,2.75v32.3c0,1.52-1.23,2.75-2.75,2.75Z"/>
      <path class="cls-1" d="m109.57,232.36c-1.61,0-2.92-1.31-2.92-2.92s1.31-2.92,2.92-2.92,2.92,1.31,2.92,2.92-1.31,2.92-2.92,2.92Z"/>
    </g>
    <g>
      <path class="cls-2" d="m224.69,184.13c6.07-.91,12.24-.83,18.38-.74,15.53.22,31.44.04,46.97.26.42,0,.5.42.85.65.42.27.95.35,1.11.82,1.6,4.72,2.85,9.88,4.45,14.6.64,1.9,2.27,3.96,2.4,5.96s-1.29,3.99-2.61,5.49c-2.03,2.32-2.9,2.79-3.26,6.25-.34,3.22-.84,6.58-.49,9.79.28,2.62.55,5.38.18,8.04-.24,1.72-1.73,2.59-3.29,2.98-8.46,2.1-17.62-1.21-24.47-6.17-7.13-5.16-12.1-12.76-19.42-17.75-2.12-1.45-4.41-2.66-6.84-3.49-6.46-2.22-13.32-2.83-20.06-3.67.43.05-.35-3.35,0-3.92.79-1.28,2.02-5.64,2.64-7.01,1.74-3.83,3.34-7.84,3.47-12.1Z"/>
      <path class="cls-1" d="m295.42,249.55h-73.17v-35.03c0-1.52,1.23-2.75,2.75-2.75s2.75,1.23,2.75,2.75v29.52h62.16v-30.04c0-1.52,1.23-2.75,2.75-2.75s2.75,1.23,2.75,2.75v35.55Z"/>
      <path class="cls-1" d="m300.32,249.55h-82.96c-1.52,0-2.75-1.23-2.75-2.75s1.23-2.75,2.75-2.75h82.96c1.52,0,2.75,1.23,2.75,2.75s-1.23,2.75-2.75,2.75Z"/>
      <path class="cls-1" d="m289.24,217.25c-4.09,0-7.74-1.73-10.09-4.42-2.35,2.69-6,4.42-10.09,4.42s-7.74-1.73-10.09-4.42c-2.35,2.69-6,4.42-10.09,4.42s-7.74-1.73-10.09-4.42c-2.35,2.69-6,4.42-10.09,4.42-6.33,0-11.66-4.07-12.68-9.69-.21-1.19-.12-2.45.26-3.64l6.96-21.59c.37-1.14,1.43-1.91,2.62-1.91h66.24c1.2,0,2.25.77,2.62,1.91l6.96,21.59c.39,1.2.48,2.46.26,3.64-1.02,5.61-6.35,9.69-12.68,9.69Zm-10.09-14.32c1.52,0,2.75,1.23,2.75,2.75,0,3.34,3.29,6.06,7.34,6.06,3.61,0,6.73-2.22,7.26-5.16.05-.3.03-.63-.08-.97l-6.35-19.68h-62.23l-6.35,19.68c-.11.34-.14.67-.08.97.53,2.94,3.65,5.16,7.26,5.16,4.05,0,7.34-2.72,7.34-6.06,0-1.52,1.23-2.75,2.75-2.75s2.75,1.23,2.75,2.75c0,3.34,3.29,6.06,7.34,6.06s7.34-2.72,7.34-6.06c0-1.52,1.23-2.75,2.75-2.75s2.75,1.23,2.75,2.75c0,3.34,3.29,6.06,7.34,6.06s7.34-2.72,7.34-6.06c0-1.52,1.23-2.75,2.75-2.75Z"/>
      <path class="cls-1" d="m248.92,249.55c-1.52,0-2.75-1.23-2.75-2.75v-32.3c0-1.52,1.23-2.75,2.75-2.75s2.75,1.23,2.75,2.75v32.3c0,1.52-1.23,2.75-2.75,2.75Z"/>
      <path class="cls-1" d="m241.42,232.36c-1.61,0-2.92-1.31-2.92-2.92s1.31-2.92,2.92-2.92,2.92,1.31,2.92,2.92-1.31,2.92-2.92,2.92Z"/>
    </g>
    <g>
      <path class="cls-2" d="m158.77,72.91c6.07-.91,12.24-.83,18.38-.74,15.53.22,31.44.04,46.97.26.42,0,.5.42.85.65.42.27.95.35,1.11.82,1.6,4.72,2.85,9.88,4.45,14.6.64,1.9,2.27,3.96,2.4,5.96s-1.29,3.99-2.61,5.49c-2.03,2.32-2.9,2.79-3.26,6.25-.34,3.22-.84,6.58-.49,9.79.28,2.62.55,5.38.18,8.04-.24,1.72-1.73,2.59-3.29,2.98-8.46,2.1-17.62-1.21-24.47-6.17-7.13-5.16-12.1-12.76-19.42-17.75-2.12-1.45-4.41-2.66-6.84-3.49-6.46-2.22-13.32-2.83-20.06-3.67.43.05-.35-3.35,0-3.92.79-1.28,2.02-5.64,2.64-7.01,1.74-3.83,3.34-7.84,3.47-12.1Z"/>
      <path class="cls-1" d="m229.5,138.33h-73.17v-35.03c0-1.52,1.23-2.75,2.75-2.75s2.75,1.23,2.75,2.75v29.52h62.16v-30.04c0-1.52,1.23-2.75,2.75-2.75s2.75,1.23,2.75,2.75v35.55Z"/>
      <path class="cls-1" d="m234.39,138.33h-82.96c-1.52,0-2.75-1.23-2.75-2.75s1.23-2.75,2.75-2.75h82.96c1.52,0,2.75,1.23,2.75,2.75s-1.23,2.75-2.75,2.75Z"/>
      <path class="cls-1" d="m223.32,106.02c-4.09,0-7.74-1.73-10.09-4.42-2.35,2.69-6,4.42-10.09,4.42s-7.74-1.73-10.09-4.42c-2.35,2.69-6,4.42-10.09,4.42s-7.74-1.73-10.09-4.42c-2.35,2.69-6,4.42-10.09,4.42-6.33,0-11.66-4.07-12.68-9.69-.21-1.19-.12-2.45.26-3.64l6.96-21.59c.37-1.14,1.43-1.91,2.62-1.91h66.24c1.2,0,2.25.77,2.62,1.91l6.96,21.59c.39,1.2.48,2.46.26,3.64-1.02,5.61-6.35,9.69-12.68,9.69Zm-10.09-14.32c1.52,0,2.75,1.23,2.75,2.75,0,3.34,3.29,6.06,7.34,6.06,3.61,0,6.73-2.22,7.26-5.16.05-.3.03-.63-.08-.97l-6.35-19.68h-62.23l-6.35,19.68c-.11.34-.14.67-.08.97.53,2.94,3.65,5.16,7.26,5.16,4.05,0,7.34-2.72,7.34-6.06,0-1.52,1.23-2.75,2.75-2.75s2.75,1.23,2.75,2.75c0,3.34,3.29,6.06,7.34,6.06s7.34-2.72,7.34-6.06c0-1.52,1.23-2.75,2.75-2.75s2.75,1.23,2.75,2.75c0,3.34,3.29,6.06,7.34,6.06s7.34-2.72,7.34-6.06c0-1.52,1.23-2.75,2.75-2.75Z"/>
      <path class="cls-1" d="m183,138.33c-1.52,0-2.75-1.23-2.75-2.75v-32.3c0-1.52,1.23-2.75,2.75-2.75s2.75,1.23,2.75,2.75v32.3c0,1.52-1.23,2.75-2.75,2.75Z"/>
      <path class="cls-1" d="m175.5,121.14c-1.61,0-2.92-1.31-2.92-2.92s1.31-2.92,2.92-2.92,2.92,1.31,2.92,2.92-1.31,2.92-2.92,2.92Z"/>
    </g>
    <g>
      <path class="cls-3" d="m271.74,120.29h-21.81c-1.52,0-2.75-1.23-2.75-2.75s1.23-2.75,2.75-2.75h21.81c1.52,0,2.75,1.23,2.75,2.75s-1.23,2.75-2.75,2.75Z"/>
      <path class="cls-3" d="m271.98,164.87c-1.52,0-2.75-1.23-2.75-2.75v-44.57c0-1.52,1.23-2.75,2.75-2.75s2.75,1.23,2.75,2.75v44.57c0,1.52-1.23,2.75-2.75,2.75Z"/>
      <path class="cls-3" d="m246.13,124.09c-3.61,0-6.55-2.94-6.55-6.55s2.94-6.55,6.55-6.55,6.55,2.94,6.55,6.55-2.94,6.55-6.55,6.55Zm0-7.59c-.57,0-1.04.47-1.04,1.04s.47,1.04,1.04,1.04,1.04-.47,1.04-1.04-.47-1.04-1.04-1.04Z"/>
      <path class="cls-3" d="m271.74,174.35c-3.61,0-6.55-2.94-6.55-6.55s2.94-6.55,6.55-6.55,6.55,2.94,6.55,6.55-2.94,6.55-6.55,6.55Zm0-7.59c-.57,0-1.04.47-1.04,1.04s.47,1.04,1.04,1.04,1.04-.47,1.04-1.04-.47-1.04-1.04-1.04Z"/>
    </g>
    <g>
      <path class="cls-3" d="m135.9,120.29h-21.81c-1.52,0-2.75-1.23-2.75-2.75s1.23-2.75,2.75-2.75h21.81c1.52,0,2.75,1.23,2.75,2.75s-1.23,2.75-2.75,2.75Z"/>
      <path class="cls-3" d="m113.85,164.87c-1.52,0-2.75-1.23-2.75-2.75v-44.57c0-1.52,1.23-2.75,2.75-2.75s2.75,1.23,2.75,2.75v44.57c0,1.52-1.23,2.75-2.75,2.75Z"/>
      <path class="cls-3" d="m139.7,124.09c-3.61,0-6.55-2.94-6.55-6.55s2.94-6.55,6.55-6.55,6.55,2.94,6.55,6.55-2.94,6.55-6.55,6.55Zm0-7.59c-.57,0-1.04.47-1.04,1.04s.47,1.04,1.04,1.04,1.04-.47,1.04-1.04-.47-1.04-1.04-1.04Z"/>
      <path class="cls-3" d="m114.09,174.35c-3.61,0-6.55-2.94-6.55-6.55s2.94-6.55,6.55-6.55,6.55,2.94,6.55,6.55-2.94,6.55-6.55,6.55Zm0-7.59c-.57,0-1.04.47-1.04,1.04s.47,1.04,1.04,1.04,1.04-.47,1.04-1.04-.47-1.04-1.04-1.04Z"/>
    </g>
  </g>
</svg>